<svg xmlns="http://www.w3.org/2000/svg" version="1.1" xmlns:xlink="http://www.w3.org/1999/xlink" xmlns:svgjs="http://svgjs.dev/svgjs" viewBox="0 0 800 800" id="qqquad"><g shape-rendering="crispEdges" stroke-linejoin="round" fill="none" stroke-width="2" stroke="hsl(220, 12%, 17%)"><polygon points="800,0 800,200 600,0"></polygon><polygon points="600,0 400,200 400,0"></polygon><polygon points="500,200 600,300 500,300"></polygon><polygon points="500,200 400,300 500,300"></polygon><polygon points="500,400 500,300 400,300"></polygon><polygon points="500,300 600,300 500,400"></polygon><polygon points="800,200 800,300 700,300"></polygon><polygon points="700,300 600,200 700,200"></polygon><polygon points="700,400 700,300 600,400"></polygon><polygon points="800,300 700,300 800,400"></polygon><polygon points="400,100 300,0 300,100"></polygon><polygon points="300,0 300,100 200,100"></polygon><polygon points="200,100 200,200 300,100"></polygon><polygon points="300,100 300,200 400,100"></polygon><polygon points="200,200 0,0 200,0"></polygon><polygon points="100,200 100,300 200,200"></polygon><polygon points="100,200 100,300 0,300"></polygon><polygon points="100,300 100,400 0,400"></polygon><polygon points="200,300 200,400 100,400"></polygon><polygon points="400,300 300,300 400,200"></polygon><polygon points="300,300 200,300 300,200"></polygon><polygon points="300,300 200,300 200,400"></polygon><polygon points="300,400 300,300 400,400"></polygon><polygon points="300,400 400,400 300,500"></polygon><polygon points="300,400 200,400 300,500"></polygon><polygon points="300,500 200,600 300,600"></polygon><polygon points="400,600 400,500 300,500"></polygon><polygon points="200,400 0,400 200,600"></polygon><polygon points="200,800 0,600 200,600"></polygon><polygon points="400,600 400,800 200,600"></polygon><polygon points="700,400 800,400 700,500"></polygon><polygon points="600,400 600,500 700,500"></polygon><polygon points="700,500 700,600 600,600"></polygon><polygon points="700,600 800,500 700,500"></polygon><polygon points="600,500 600,400 500,400"></polygon><polygon points="500,500 400,500 500,400"></polygon><polygon points="500,500 450,500 500,550"></polygon><polygon points="400,550 450,550 450,500"></polygon><polygon points="450,600 400,550 400,600"></polygon><polygon points="500,550 450,600 500,600"></polygon><polygon points="600,500 600,600 500,600"></polygon><polygon points="600,600 600,800 400,800"></polygon><polygon points="800,600 600,800 800,800"></polygon></g><g fill="hsl(220, 62%, 45%)" stroke-width="3" stroke="hsl(220, 43%, 13%)"></g></svg>